<svg id="图层_1" data-name="图层 1" xmlns="http://www.w3.org/2000/svg" viewBox="0 0 200 200"><defs><style>.cls-1{fill:#484848;}</style></defs><title>修改</title><path class="cls-1" d="M164,58.46,131.44,25.88a5.79,5.79,0,0,0-8.2,0l-88.63,88.6a5.34,5.34,0,0,0-1.72,3L25,157.75a5.41,5.41,0,0,0,1.46,4.78,5.35,5.35,0,0,0,3.84,1.6,4.77,4.77,0,0,0,.92-.08l40.63-7a5.43,5.43,0,0,0,3.3-1.56L164,66.63a5.81,5.81,0,0,0,0-8.17ZM68.76,146.64,37,152.11l6.14-30.91,62.4-62.4,25.5,25.52Zm70-69.95L113.19,51.16,127.32,37l25.52,25.53Z"/><path class="cls-1" d="M155.72,179.55H30.27a5.4,5.4,0,1,1,0-10.79H155.74a5.4,5.4,0,1,1,0,10.79Z"/></svg>