<svg id="图层_1" data-name="图层 1" xmlns="http://www.w3.org/2000/svg" viewBox="0 0 725.67 725.67"><defs><style>.cls-1,.cls-2{fill:#484848;}.cls-1{opacity:0.7;}</style></defs><title>电池管理 未选中</title><path class="cls-1" d="M682.56,259.41c0-.19,0-.38,0-.58A42.08,42.08,0,0,0,640.48,218H598.39a42.09,42.09,0,0,0-7.25,83.55L561.32,540.93H186.56L156.75,301.65a42.09,42.09,0,0,0-7.33-83.53H111.47a44.58,44.58,0,0,0-8.41.2l-.6.09a42,42,0,0,0-36.6,48.94l39.93,320.56a41.75,41.75,0,0,0,7,18.54l.18.27c.23.33.47.67.71,1A42.41,42.41,0,0,0,147,625.09h.38l.7,0H600.21A42.24,42.24,0,0,0,642.57,584l39.68-318.49c.13-1,.21-2.09.26-3.13v-.33c0-.5,0-1,0-1.49,0-.17,0-.32,0-.49s0-.45,0-.68Z"/><path class="cls-2" d="M233.61,372.45a14,14,0,1,0,0,28.07h56.12a14,14,0,0,0,0-28.07Z"/><path class="cls-2" d="M486.15,428.58a14,14,0,0,0,14-14v-14h14a14,14,0,0,0,0-28.06h-14v-14a14,14,0,0,0-28.06,0v14h-14a14,14,0,1,0,0,28.06h14v14A14,14,0,0,0,486.15,428.58Z"/><path class="cls-1" d="M220.38,270.77a42.87,42.87,0,0,0,17.37,24,41.89,41.89,0,0,0,24.54,7.9H486.77l1.11,0h.51c.66,0,1.33-.07,2-.12h.12c.57-.05,1.14-.12,1.71-.19l.65-.08.79-.13c16.82-2.64,31.32-14.44,36-31.3l23.14-83c6.39-22.93-7.76-46.5-31.61-52.64s-48.37,7.46-54.76,30.39l-14.77,53H298.37l-14.76-53c-6.39-22.93-30.91-36.54-54.76-30.39s-38,29.71-31.62,52.64Z"/><path class="cls-2" d="M598,260.31a42.31,42.31,0,1,0,84.61,0v0a42.31,42.31,0,1,0-84.61,0Z"/><path class="cls-2" d="M105.67,582.81A42.31,42.31,0,1,0,148,540.5a42.3,42.3,0,0,0-42.31,42.31Z"/></svg>