<svg id="图层_1" data-name="图层 1" xmlns="http://www.w3.org/2000/svg" viewBox="0 0 725.67 725.67"><defs><style>.cls-1,.cls-2{fill:#71bfdb;}.cls-1{opacity:0.7;}</style></defs><title>用户 选中</title><path class="cls-1" d="M570.82,594.08c0-.39.08-.78.11-1.16v0c.09-1.06.14-2.13.14-3.2a38.12,38.12,0,0,0-8.85-24.49l-34.63-59a38.67,38.67,0,0,0-52.33-13.79,37.33,37.33,0,0,0-14,51.45l4.41,7.51H216.37l46.23-79.54a203.69,203.69,0,0,0,78.66,15.7c112.82,0,204.28-91.46,204.28-204.28S454.08,79,341.26,79,137,170.46,137,283.28A203.66,203.66,0,0,0,198.73,429.6l-80,137.68a38.12,38.12,0,0,0-7.16,19.81h0l-.06,1.25c0,.41,0,.81,0,1.21v.25a38,38,0,0,0,19.14,33.09,40.89,40.89,0,0,0,4.2,2.07l.13,0c.51.22,1,.42,1.55.61l.3.11c.48.17.95.33,1.43.48l.44.14,1.35.38.52.13c.43.11.86.21,1.3.3l.58.12c.42.08.85.16,1.28.22l.61.1c.64.09,1.28.16,1.92.22s1.29.1,1.94.13l1.17,0H532.77a38.08,38.08,0,0,0,19-5l.14-.08.22-.13.91-.55a37.55,37.55,0,0,0,17.82-28.14ZM341.26,155.6A127.68,127.68,0,1,1,213.59,283.28,127.69,127.69,0,0,1,341.26,155.6Z"/><path class="cls-2" d="M532.72,551.35A38.3,38.3,0,1,0,571,589.65,38.3,38.3,0,0,0,532.72,551.35Z"/><circle class="cls-2" cx="149.7" cy="589.65" r="38.3" transform="translate(-451.83 680.52) rotate(-84.35)"/><path class="cls-2" d="M251.84,385.37a38.31,38.31,0,1,0,38.3,38.3A38.3,38.3,0,0,0,251.84,385.37Z"/></svg>