<svg id="图层_1" data-name="图层 1" xmlns="http://www.w3.org/2000/svg" viewBox="0 0 200 200"><defs><style>.cls-1{fill:#484848;}</style></defs><title>画板 1</title><path class="cls-1" d="M140.91,9.09H59.1A18.2,18.2,0,0,0,40.92,27.28V172.72A18.2,18.2,0,0,0,59.1,190.91h81.81a18.21,18.21,0,0,0,18.18-18.19V27.28A18.21,18.21,0,0,0,140.91,9.09ZM59.1,18.19h81.81A9.1,9.1,0,0,1,150,27.28V145.45H50V27.28A9.1,9.1,0,0,1,59.1,18.19Zm81.81,163.63H59.1a9.11,9.11,0,0,1-9.09-9.1V154.54H150v18.18a9.1,9.1,0,0,1-9.09,9.09Zm-30.68-18.19H89.78a4.55,4.55,0,1,0,0,9.09h20.45a4.55,4.55,0,1,0,0-9.09Z"/></svg>