<svg id="图层_1" data-name="图层 1" xmlns="http://www.w3.org/2000/svg" viewBox="0 0 200 200"><defs><style>.cls-1{fill:#484848;}</style></defs><title>画板 1</title><path class="cls-1" d="M30.94,129.06h.31v27.19a12.54,12.54,0,0,0,12.5,12.5h112.5a12.53,12.53,0,0,0,12.5-12.5V129.06h.31A6.56,6.56,0,0,1,175,125a6.12,6.12,0,0,1,5.94,4.06h.31v27.19a25.07,25.07,0,0,1-25,25H43.75a25.07,25.07,0,0,1-25-25V129.06h.31a6.38,6.38,0,0,1,11.88,0Zm.31-60.31v-25a12.54,12.54,0,0,1,12.5-12.5h112.5a12.54,12.54,0,0,1,12.5,12.5v25a6.25,6.25,0,0,0,12.5,0v-25a25.07,25.07,0,0,0-25-25H43.75a25.07,25.07,0,0,0-25,25v25a6.25,6.25,0,0,0,12.5,0Zm-9.37,25H178.13a6.25,6.25,0,0,1,0,12.5H21.88a6.25,6.25,0,1,1,0-12.5Z"/></svg>