<svg id="图层_1" data-name="图层 1" xmlns="http://www.w3.org/2000/svg" viewBox="0 0 256 256"><defs><style>.cls-1,.cls-2{fill:#71bfdb;}.cls-2{opacity:0.7;}</style></defs><title>告警事件 选中</title><path class="cls-1" d="M132.2,184.32a17.94,17.94,0,1,0-17.94-17.94,17.94,17.94,0,0,0,17.94,17.94Z"/><path class="cls-2" d="M132.2,11.5A113.62,113.62,0,1,0,245.82,125.12,113.62,113.62,0,0,0,132.2,11.5Zm0,191.35a77.74,77.74,0,1,1,77.74-77.73A77.73,77.73,0,0,1,132.2,202.85Z"/><path class="cls-1" d="M51.87,44.78a17.94,17.94,0,1,1,0,25.37A17.93,17.93,0,0,1,51.87,44.78Zm135.3,135.3a17.94,17.94,0,1,1,0,25.37A17.95,17.95,0,0,1,187.17,180.08Z"/><rect class="cls-1" x="114.26" y="66.03" width="33.8" height="69.38" rx="16.9" ry="16.9"/></svg>